# xmcd
# 
# Track frame offsets:
#     150
#     10372
#     31255
#     47085
#     77877
#     88927
#     115247
#     129790
#     147735
#     163690
# 
# Disc length: 2331
# 
# Revision: 10
# Processed by: cddbd v1.5.2PL0 Copyright (c) Steve Scherf et al.
# Submitted via: fre:ac v1.0.27
# 
DISCID=8309190a
DTITLE=Stevie Ray Vaughan and Double Trouble - The Sky Is Crying
DYEAR=1991
DGENRE=Blues Rock
TTITLE0=Boot Hill
TTITLE1=The sky Is Crying
TTITLE2=Empty Arms
TTITLE3=Little Wing
TTITLE4=Wham
TTITLE5=May I Have A Talk With You
TTITLE6=Close To You
TTITLE7=Chitlins Con Carne
TTITLE8=So Excited
TTITLE9=Life By The Drop
EXTD=CD 1991/2000 - 5th Studio Album\nEPIC - EPC 468640 2
EXTT0=
EXTT1=
EXTT2=
EXTT3=
EXTT4=
EXTT5=
EXTT6=
EXTT7=
EXTT8=
EXTT9=
PLAYORDER=
